<mxfile host="app.diagrams.net" modified="2023-10-13T04:46:11.082Z" agent="Mozilla/5.0 (Macintosh; Intel Mac OS X 10_15_7) AppleWebKit/537.36 (KHTML, like Gecko) Chrome/114.0.0.0 Safari/537.36" etag="_k1U4Zp3ex24fFk6x_jM" version="22.0.4" type="device">
  <diagram name="第 1 页" id="EgpLORr6GdP-51_RtT6J">
    <mxGraphModel dx="937" dy="596" grid="1" gridSize="10" guides="1" tooltips="1" connect="1" arrows="1" fold="1" page="1" pageScale="1" pageWidth="827" pageHeight="1169" math="0" shadow="0">
      <root>
        <mxCell id="0" />
        <mxCell id="1" parent="0" />
        <mxCell id="Hf7XmdfCjKlOK6oCsIuB-3" value="" style="edgeStyle=orthogonalEdgeStyle;rounded=0;orthogonalLoop=1;jettySize=auto;html=1;strokeColor=#A8201A;fontColor=#143642;fillColor=#FAE5C7;" edge="1" parent="1" source="Hf7XmdfCjKlOK6oCsIuB-1" target="Hf7XmdfCjKlOK6oCsIuB-2">
          <mxGeometry relative="1" as="geometry" />
        </mxCell>
        <mxCell id="Hf7XmdfCjKlOK6oCsIuB-1" value="ReadFile" style="rounded=0;whiteSpace=wrap;html=1;sketch=1;curveFitting=1;jiggle=2;labelBackgroundColor=none;fillColor=#FAE5C7;strokeColor=#0F8B8D;fontColor=#143642;" vertex="1" parent="1">
          <mxGeometry x="320" y="360" width="100" height="40" as="geometry" />
        </mxCell>
        <mxCell id="Hf7XmdfCjKlOK6oCsIuB-5" value="" style="edgeStyle=orthogonalEdgeStyle;rounded=0;orthogonalLoop=1;jettySize=auto;html=1;strokeColor=#A8201A;fontColor=#143642;fillColor=#FAE5C7;" edge="1" parent="1" source="Hf7XmdfCjKlOK6oCsIuB-2" target="Hf7XmdfCjKlOK6oCsIuB-4">
          <mxGeometry relative="1" as="geometry" />
        </mxCell>
        <mxCell id="Hf7XmdfCjKlOK6oCsIuB-2" value="PreProcess" style="rounded=0;whiteSpace=wrap;html=1;sketch=1;curveFitting=1;jiggle=2;labelBackgroundColor=none;fillColor=#FAE5C7;strokeColor=#0F8B8D;fontColor=#143642;" vertex="1" parent="1">
          <mxGeometry x="530" y="360" width="100" height="40" as="geometry" />
        </mxCell>
        <mxCell id="Hf7XmdfCjKlOK6oCsIuB-18" value="" style="edgeStyle=orthogonalEdgeStyle;rounded=0;orthogonalLoop=1;jettySize=auto;html=1;strokeColor=#A8201A;fontColor=#143642;fillColor=#FAE5C7;entryX=0.917;entryY=0.833;entryDx=0;entryDy=0;entryPerimeter=0;" edge="1" parent="1" source="Hf7XmdfCjKlOK6oCsIuB-4" target="Hf7XmdfCjKlOK6oCsIuB-20">
          <mxGeometry relative="1" as="geometry">
            <mxPoint x="420" y="510" as="targetPoint" />
          </mxGeometry>
        </mxCell>
        <mxCell id="Hf7XmdfCjKlOK6oCsIuB-4" value="Compile" style="rounded=0;whiteSpace=wrap;html=1;sketch=1;curveFitting=1;jiggle=2;labelBackgroundColor=none;fillColor=#FAE5C7;strokeColor=#0F8B8D;fontColor=#143642;" vertex="1" parent="1">
          <mxGeometry x="530" y="490" width="100" height="40" as="geometry" />
        </mxCell>
        <mxCell id="Hf7XmdfCjKlOK6oCsIuB-7" value="Texture.glsl" style="shape=note;whiteSpace=wrap;html=1;backgroundOutline=1;darkOpacity=0.05;strokeColor=#666666;fontColor=#333333;fillColor=#f5f5f5;" vertex="1" parent="1">
          <mxGeometry x="190" y="341" width="70" height="80" as="geometry" />
        </mxCell>
        <mxCell id="Hf7XmdfCjKlOK6oCsIuB-8" value="" style="edgeStyle=orthogonalEdgeStyle;rounded=0;orthogonalLoop=1;jettySize=auto;html=1;strokeColor=#A8201A;fontColor=#143642;fillColor=#FAE5C7;exitX=0.975;exitY=0.488;exitDx=0;exitDy=0;exitPerimeter=0;entryX=0;entryY=0.5;entryDx=0;entryDy=0;" edge="1" parent="1" source="Hf7XmdfCjKlOK6oCsIuB-7" target="Hf7XmdfCjKlOK6oCsIuB-1">
          <mxGeometry relative="1" as="geometry">
            <mxPoint x="270" y="379.74" as="sourcePoint" />
            <mxPoint x="320" y="380" as="targetPoint" />
          </mxGeometry>
        </mxCell>
        <mxCell id="Hf7XmdfCjKlOK6oCsIuB-9" value="std::string" style="text;html=1;align=center;verticalAlign=middle;resizable=0;points=[];autosize=1;" vertex="1" parent="1">
          <mxGeometry x="430" y="350" width="80" height="30" as="geometry" />
        </mxCell>
        <mxCell id="Hf7XmdfCjKlOK6oCsIuB-14" value="std::unordered_map：&lt;br&gt;{vertex：vertexSrc}&lt;br style=&quot;border-color: var(--border-color);&quot;&gt;&lt;div style=&quot;&quot;&gt;&lt;span style=&quot;background-color: initial;&quot;&gt;{fragment：fragmentSrc}&lt;/span&gt;&lt;/div&gt;&lt;div style=&quot;&quot;&gt;...&lt;/div&gt;" style="text;html=1;align=left;verticalAlign=middle;resizable=0;points=[];autosize=1;" vertex="1" parent="1">
          <mxGeometry x="590" y="405" width="160" height="70" as="geometry" />
        </mxCell>
        <mxCell id="Hf7XmdfCjKlOK6oCsIuB-21" value="" style="group" vertex="1" connectable="0" parent="1">
          <mxGeometry x="310" y="460" width="120" height="80" as="geometry" />
        </mxCell>
        <mxCell id="Hf7XmdfCjKlOK6oCsIuB-19" value="Shader Program" style="strokeWidth=2;html=1;shape=mxgraph.flowchart.stored_data;whiteSpace=wrap;strokeColor=#666666;fontColor=#333333;fillColor=#f5f5f5;" vertex="1" parent="Hf7XmdfCjKlOK6oCsIuB-21">
          <mxGeometry x="10" y="20" width="110" height="60" as="geometry" />
        </mxCell>
        <mxCell id="Hf7XmdfCjKlOK6oCsIuB-20" value="m_RendererID" style="text;html=1;align=center;verticalAlign=middle;resizable=0;points=[];autosize=1;" vertex="1" parent="Hf7XmdfCjKlOK6oCsIuB-21">
          <mxGeometry width="120" height="60" as="geometry" />
        </mxCell>
      </root>
    </mxGraphModel>
  </diagram>
</mxfile>
